<mxfile host="app.diagrams.net" modified="2023-10-30T05:45:52.734Z" agent="Mozilla/5.0 (Macintosh; Intel Mac OS X 10_15_7) AppleWebKit/537.36 (KHTML, like Gecko) Chrome/118.0.0.0 Safari/537.36" etag="QiiiHjSoxzQFmSOtK17q" version="21.8.2" type="github">
  <diagram name="Page-1" id="D61PyfcK58h0UPg5Ae6O">
    <mxGraphModel dx="2074" dy="2250" grid="1" gridSize="10" guides="1" tooltips="1" connect="1" arrows="1" fold="1" page="1" pageScale="1" pageWidth="850" pageHeight="1100" math="0" shadow="0">
      <root>
        <mxCell id="0" />
        <mxCell id="1" parent="0" />
        <mxCell id="CutPcQzICrdOBgq3EssP-4" style="edgeStyle=orthogonalEdgeStyle;rounded=0;orthogonalLoop=1;jettySize=auto;html=1;" edge="1" parent="1" source="CutPcQzICrdOBgq3EssP-1" target="CutPcQzICrdOBgq3EssP-2">
          <mxGeometry relative="1" as="geometry" />
        </mxCell>
        <mxCell id="CutPcQzICrdOBgq3EssP-6" value="投保单信息" style="edgeLabel;html=1;align=center;verticalAlign=middle;resizable=0;points=[];" vertex="1" connectable="0" parent="CutPcQzICrdOBgq3EssP-4">
          <mxGeometry x="-0.3286" relative="1" as="geometry">
            <mxPoint x="18" as="offset" />
          </mxGeometry>
        </mxCell>
        <mxCell id="CutPcQzICrdOBgq3EssP-11" style="edgeStyle=orthogonalEdgeStyle;rounded=0;orthogonalLoop=1;jettySize=auto;html=1;" edge="1" parent="1" source="CutPcQzICrdOBgq3EssP-1" target="CutPcQzICrdOBgq3EssP-9">
          <mxGeometry relative="1" as="geometry" />
        </mxCell>
        <mxCell id="CutPcQzICrdOBgq3EssP-13" value="投保单ID" style="edgeLabel;html=1;align=center;verticalAlign=middle;resizable=0;points=[];" vertex="1" connectable="0" parent="CutPcQzICrdOBgq3EssP-11">
          <mxGeometry x="0.1727" y="-1" relative="1" as="geometry">
            <mxPoint y="1" as="offset" />
          </mxGeometry>
        </mxCell>
        <mxCell id="CutPcQzICrdOBgq3EssP-1" value="业务人员" style="shape=umlActor;verticalLabelPosition=bottom;verticalAlign=top;html=1;outlineConnect=0;" vertex="1" parent="1">
          <mxGeometry x="216.5" y="-960" width="30" height="60" as="geometry" />
        </mxCell>
        <mxCell id="CutPcQzICrdOBgq3EssP-5" style="edgeStyle=orthogonalEdgeStyle;rounded=0;orthogonalLoop=1;jettySize=auto;html=1;" edge="1" parent="1" source="CutPcQzICrdOBgq3EssP-2" target="CutPcQzICrdOBgq3EssP-3">
          <mxGeometry relative="1" as="geometry" />
        </mxCell>
        <mxCell id="CutPcQzICrdOBgq3EssP-7" value="生成投保单缓存" style="edgeLabel;html=1;align=center;verticalAlign=middle;resizable=0;points=[];" vertex="1" connectable="0" parent="CutPcQzICrdOBgq3EssP-5">
          <mxGeometry x="-0.4783" relative="1" as="geometry">
            <mxPoint x="25" as="offset" />
          </mxGeometry>
        </mxCell>
        <mxCell id="CutPcQzICrdOBgq3EssP-2" value="风控系统" style="rounded=1;whiteSpace=wrap;html=1;" vertex="1" parent="1">
          <mxGeometry x="386.5" y="-960" width="120" height="60" as="geometry" />
        </mxCell>
        <mxCell id="CutPcQzICrdOBgq3EssP-3" value="数据库" style="shape=cylinder3;whiteSpace=wrap;html=1;boundedLbl=1;backgroundOutline=1;size=15;" vertex="1" parent="1">
          <mxGeometry x="621.5" y="-970" width="60" height="80" as="geometry" />
        </mxCell>
        <mxCell id="CutPcQzICrdOBgq3EssP-8" value="1. 被保人基础信息&lt;br&gt;&lt;div style=&quot;text-align: left;&quot;&gt;&lt;span style=&quot;background-color: initial;&quot;&gt;2. 代理人基础信息&lt;/span&gt;&lt;/div&gt;&lt;div style=&quot;text-align: left;&quot;&gt;&lt;span style=&quot;background-color: initial;&quot;&gt;3. 投保单ID&lt;/span&gt;&lt;/div&gt;" style="text;html=1;strokeColor=none;fillColor=none;align=center;verticalAlign=middle;whiteSpace=wrap;rounded=0;" vertex="1" parent="1">
          <mxGeometry x="260" y="-990" width="111.5" height="40" as="geometry" />
        </mxCell>
        <mxCell id="CutPcQzICrdOBgq3EssP-9" value="展示页面" style="swimlane;whiteSpace=wrap;html=1;" vertex="1" parent="1">
          <mxGeometry x="169" y="-790" width="125" height="110" as="geometry" />
        </mxCell>
        <mxCell id="CutPcQzICrdOBgq3EssP-12" style="edgeStyle=orthogonalEdgeStyle;rounded=0;orthogonalLoop=1;jettySize=auto;html=1;entryX=0.5;entryY=1;entryDx=0;entryDy=0;entryPerimeter=0;" edge="1" parent="1" source="CutPcQzICrdOBgq3EssP-9" target="CutPcQzICrdOBgq3EssP-3">
          <mxGeometry relative="1" as="geometry" />
        </mxCell>
        <mxCell id="CutPcQzICrdOBgq3EssP-14" value="投保单风险信息" style="edgeLabel;html=1;align=center;verticalAlign=middle;resizable=0;points=[];" vertex="1" connectable="0" parent="CutPcQzICrdOBgq3EssP-12">
          <mxGeometry x="-0.44" relative="1" as="geometry">
            <mxPoint x="39" as="offset" />
          </mxGeometry>
        </mxCell>
        <mxCell id="CutPcQzICrdOBgq3EssP-22" value="1. 投保单数据添加接口&lt;br&gt;2. 投保单风险接口（基础信息+分数+风险因素列表）&lt;br&gt;3. 核保图谱接口&lt;br&gt;*4. 离线指标计算DAG" style="text;html=1;strokeColor=none;fillColor=none;align=left;verticalAlign=middle;whiteSpace=wrap;rounded=0;" vertex="1" parent="1">
          <mxGeometry x="136.5" y="-440" width="313.5" height="70" as="geometry" />
        </mxCell>
        <mxCell id="CutPcQzICrdOBgq3EssP-17" value="风险分数（旭日图）" style="rounded=0;whiteSpace=wrap;html=1;" vertex="1" parent="1">
          <mxGeometry x="136.5" y="-601.43" width="108.57142857142857" height="51.42857142857142" as="geometry" />
        </mxCell>
        <mxCell id="CutPcQzICrdOBgq3EssP-18" value="风险因素列表" style="rounded=0;whiteSpace=wrap;html=1;" vertex="1" parent="1">
          <mxGeometry x="245.07" y="-601.43" width="74.93" height="51.43" as="geometry" />
        </mxCell>
        <mxCell id="CutPcQzICrdOBgq3EssP-19" value="投保单图谱" style="rounded=0;whiteSpace=wrap;html=1;" vertex="1" parent="1">
          <mxGeometry x="136.5" y="-550" width="183.5" height="80" as="geometry" />
        </mxCell>
        <mxCell id="CutPcQzICrdOBgq3EssP-23" value="被保人基础信息" style="rounded=0;whiteSpace=wrap;html=1;" vertex="1" parent="1">
          <mxGeometry x="137" y="-630" width="183" height="29" as="geometry" />
        </mxCell>
        <mxCell id="CutPcQzICrdOBgq3EssP-30" style="edgeStyle=orthogonalEdgeStyle;rounded=0;orthogonalLoop=1;jettySize=auto;html=1;" edge="1" parent="1" source="CutPcQzICrdOBgq3EssP-24" target="CutPcQzICrdOBgq3EssP-27">
          <mxGeometry relative="1" as="geometry" />
        </mxCell>
        <mxCell id="CutPcQzICrdOBgq3EssP-24" value="代理人&lt;br&gt;数据统计" style="ellipse;whiteSpace=wrap;html=1;aspect=fixed;" vertex="1" parent="1">
          <mxGeometry x="30.209999999999994" y="-120" width="80" height="80" as="geometry" />
        </mxCell>
        <mxCell id="CutPcQzICrdOBgq3EssP-31" style="edgeStyle=orthogonalEdgeStyle;rounded=0;orthogonalLoop=1;jettySize=auto;html=1;entryX=0;entryY=0.5;entryDx=0;entryDy=0;" edge="1" parent="1" source="CutPcQzICrdOBgq3EssP-25" target="CutPcQzICrdOBgq3EssP-28">
          <mxGeometry relative="1" as="geometry" />
        </mxCell>
        <mxCell id="CutPcQzICrdOBgq3EssP-25" value="家庭&lt;br&gt;数据统计" style="ellipse;whiteSpace=wrap;html=1;aspect=fixed;" vertex="1" parent="1">
          <mxGeometry x="30.209999999999994" y="40" width="80" height="80" as="geometry" />
        </mxCell>
        <mxCell id="CutPcQzICrdOBgq3EssP-32" style="edgeStyle=orthogonalEdgeStyle;rounded=0;orthogonalLoop=1;jettySize=auto;html=1;entryX=0;entryY=0.5;entryDx=0;entryDy=0;" edge="1" parent="1" source="CutPcQzICrdOBgq3EssP-26" target="CutPcQzICrdOBgq3EssP-29">
          <mxGeometry relative="1" as="geometry" />
        </mxCell>
        <mxCell id="CutPcQzICrdOBgq3EssP-26" value="被保人&lt;br&gt;数据统计" style="ellipse;whiteSpace=wrap;html=1;aspect=fixed;" vertex="1" parent="1">
          <mxGeometry x="29.999999999999986" y="190" width="80" height="80" as="geometry" />
        </mxCell>
        <mxCell id="CutPcQzICrdOBgq3EssP-27" value="代理人&lt;br&gt;指标计算" style="ellipse;whiteSpace=wrap;html=1;aspect=fixed;" vertex="1" parent="1">
          <mxGeometry x="199.20999999999998" y="-120" width="80" height="80" as="geometry" />
        </mxCell>
        <mxCell id="CutPcQzICrdOBgq3EssP-28" value="家庭&lt;br&gt;指标计算" style="ellipse;whiteSpace=wrap;html=1;aspect=fixed;" vertex="1" parent="1">
          <mxGeometry x="199.20999999999998" y="40" width="80" height="80" as="geometry" />
        </mxCell>
        <mxCell id="CutPcQzICrdOBgq3EssP-29" value="被保人&lt;br&gt;指标计算" style="ellipse;whiteSpace=wrap;html=1;aspect=fixed;" vertex="1" parent="1">
          <mxGeometry x="199.20999999999998" y="190" width="80" height="80" as="geometry" />
        </mxCell>
        <mxCell id="CutPcQzICrdOBgq3EssP-33" value="代理人&lt;br&gt;排名计算" style="ellipse;whiteSpace=wrap;html=1;aspect=fixed;" vertex="1" parent="1">
          <mxGeometry x="360" y="-120" width="80" height="80" as="geometry" />
        </mxCell>
      </root>
    </mxGraphModel>
  </diagram>
</mxfile>
